<svg height="512" viewBox="0 0 192 192" width="512" xmlns="http://www.w3.org/2000/svg"><path style="fill:#ff9000" d="m185.94 72.239-14.793-3.7q-1.164-3.19-2.592-6.264l7.845-13.07a8 8 0 0 0 -1.2-9.773l-22.631-22.632a8 8 0 0 0 -9.773-1.2l-13.073 7.844q-3.069-1.425-6.263-2.592l-3.7-14.793a8 8 0 0 0 -7.76-6.059h-32a8 8 0 0 0 -7.761 6.06l-3.7 14.793q-3.187 1.164-6.263 2.592l-13.076-7.845a8 8 0 0 0 -9.773 1.2l-22.627 22.632a8 8 0 0 0 -1.2 9.768l7.843 13.074q-1.425 3.069-2.591 6.263l-14.792 3.702a8 8 0 0 0 -6.06 7.761v32a8 8 0 0 0 6.06 7.761l14.793 3.7q1.164 3.189 2.591 6.263l-7.844 13.076a8 8 0 0 0 1.2 9.772l22.631 22.628a8 8 0 0 0 9.773 1.2l13.073-7.844q3.069 1.425 6.263 2.592l3.7 14.793a8 8 0 0 0 7.76 6.059h32a8 8 0 0 0 7.761-6.06l3.7-14.793q3.188-1.164 6.263-2.592l13.076 7.845a8 8 0 0 0 9.773-1.2l22.627-22.632a8 8 0 0 0 1.2-9.773l-7.843-13.072q1.426-3.069 2.592-6.264l14.793-3.7a8 8 0 0 0 6.058-7.759v-32a8 8 0 0 0 -6.06-7.761zm-81.94 62.961v-26.256l11.578-5.789a8 8 0 0 0 4.422-7.155v-24h-16v19.056l-8 4-8-4v-19.056h-16v24a8 8 0 0 0 4.422 7.155l11.578 5.789v26.256a40 40 0 1 1 16 0z"/></svg>